# xmcd
#
# Track frame offsets: 
#        150
#        6828
#        25962
#        44734
#        61783
#        80772
#        100287
#        117699
#        138781
#        160433
#        181677
#        225851
#        253207
#        266793
#        283065
#        296640
#
# Disc length: 4457 seconds
#
# Revision: 0
# Processed by: cddbd v1.5.2PL0 Copyright (c) Steve Scherf et al.
# Submitted via: ExactAudioCopy v0.95b4
#
DISCID=e9116710
DTITLE=DERIC RUTTAN - UP ALL NIGHT LIVE
DYEAR=2011
DGENRE=COUNTRY
TTITLE0=INTRO
TTITLE1=SING THAT SONG AGAIN
TTITLE2=TAKE THE WHEEL
TTITLE3=CALIFORNIA PLATES
TTITLE4=LOVIN' YOU IS KILLIN' ME
TTITLE5=THAT'S HOW I WANNA GO OUT
TTITLE6=WHEN YOU COME AROUND
TTITLE7=FIRST TIME IN A LONG TIME
TTITLE8=UNBEATABLE
TTITLE9=UP ALL NIGHT
TTITLE10=ARE YOU SURE HANK DONE IT THIS WAY-LOT OF LEAVIN' LEFT TO DO-
TTITLE10=WHAT WAS I THINKIN'
TTITLE11=GOOD TIME
TTITLE12=GOOD TIME
TTITLE13=WHERE THE TRAIN DON'T STOP
TTITLE14=MY KIND OF FREEDOM
TTITLE15=MAINSTREET 1979
EXTD=
EXTT0=
EXTT1=
EXTT2=
EXTT3=
EXTT4=
EXTT5=
EXTT6=
EXTT7=
EXTT8=
EXTT9=
EXTT10=
EXTT11=
EXTT12=
EXTT13=
EXTT14=
EXTT15=
PLAYORDER=
